<svg width="92" height="93" viewBox="0 0 92 93" fill="none" xmlns="http://www.w3.org/2000/svg">
<g id="figma-original 1" clip-path="url(#clip0_28_114)">
<path id="Vector" d="M32.7031 93.2188C41.2563 93.2188 48.1562 86.3188 48.1562 77.7656V62.3125H32.7031C24.15 62.3125 17.25 69.2125 17.25 77.7656C17.25 86.3188 24.15 93.2188 32.7031 93.2188Z" fill="#0ACF83"/>
<path id="Vector_2" d="M17.25 46.8594C17.25 38.3063 24.15 31.4062 32.7031 31.4062H48.1562V62.3125H32.7031C24.15 62.3125 17.25 55.4125 17.25 46.8594Z" fill="#A259FF"/>
<path id="Vector_3" d="M17.25 15.9531C17.25 7.4 24.15 0.5 32.7031 0.5H48.1562V31.4062H32.7031C24.15 31.4062 17.25 24.5063 17.25 15.9531Z" fill="#F24E1E"/>
<path id="Vector_4" d="M48.1562 0.5H63.6094C72.1625 0.5 79.0625 7.4 79.0625 15.9531C79.0625 24.5063 72.1625 31.4062 63.6094 31.4062H48.1562V0.5Z" fill="#FF7262"/>
<path id="Vector_5" d="M79.0625 46.8594C79.0625 55.4125 72.1625 62.3125 63.6094 62.3125C55.0563 62.3125 48.1562 55.4125 48.1562 46.8594C48.1562 38.3063 55.0563 31.4062 63.6094 31.4062C72.1625 31.4062 79.0625 38.3063 79.0625 46.8594Z" fill="#1ABCFE"/>
</g>
<defs>
<clipPath id="clip0_28_114">
<rect width="92" height="92" fill="white" transform="translate(0 0.5)"/>
</clipPath>
</defs>
</svg>
