<svg width="92" height="93" viewBox="0 0 92 93" fill="none" xmlns="http://www.w3.org/2000/svg">
<g id="git-original 1">
<path id="Vector" d="M89.6547 42.4592L50.0401 2.84599C47.7602 0.564682 44.0601 0.564682 41.7766 2.84599L33.5513 11.0728L43.9861 21.5076C46.4119 20.689 49.192 21.2381 51.1247 23.1708C53.0675 25.1157 53.6123 27.9196 52.7735 30.3533L62.8303 40.4107C65.2632 39.572 68.0714 40.1139 70.0135 42.0603C72.7303 44.775 72.7303 49.1759 70.0135 51.8921C69.3678 52.538 68.6012 53.0504 67.7575 53.4C66.9138 53.7496 66.0094 53.9296 65.0961 53.9296C64.1828 53.9296 63.2785 53.7496 62.4347 53.4C61.591 53.0504 60.8244 52.538 60.1788 51.8921C59.2088 50.9214 58.5475 49.6855 58.2783 48.34C58.0091 46.9944 58.1439 45.5992 58.6658 44.3301L49.2876 34.9518L49.2861 59.6344C49.9666 59.9695 50.5878 60.4133 51.1254 60.9483C53.8409 63.663 53.8409 68.0625 51.1254 70.783C48.4093 73.4977 44.0069 73.4977 41.2936 70.783C38.5782 68.0632 38.5782 63.6637 41.2936 60.9483C41.9442 60.2967 42.718 59.7812 43.5699 59.4317V34.5206C42.7173 34.1721 41.9433 33.6562 41.2936 33.0033C39.2366 30.9477 38.7414 27.9289 39.7965 25.4018L29.509 15.1143L2.34601 42.2759C1.25014 43.3721 0.634521 44.8587 0.634521 46.4087C0.634521 47.9587 1.25014 49.4453 2.34601 50.5415L41.9614 90.1547C44.2427 92.436 47.9414 92.436 50.2263 90.1547L89.6554 50.7255C90.7511 49.629 91.3665 48.1423 91.3663 46.5922C91.3662 45.0421 90.7506 43.5555 89.6547 42.4592Z" fill="#F34F29"/>
</g>
</svg>
