<svg width="92" height="93" viewBox="0 0 92 93" fill="none" xmlns="http://www.w3.org/2000/svg">
<g id="javascript-original 1">
<path id="Vector" d="M1.01221 1.512H90.9882V91.4887H1.01221V1.512Z" fill="#F0DB4F"/>
<path id="Vector_2" d="M83.6243 70.029C82.9652 65.9242 80.2885 62.4764 72.36 59.2614C69.6058 57.9957 66.5352 57.0893 65.6203 55.0021C65.2954 53.7874 65.2523 53.1032 65.4578 52.3679C66.0479 49.9816 68.8963 49.2377 71.1539 49.922C72.608 50.4093 73.9844 51.5298 74.8145 53.3173C78.6972 50.8032 78.6893 50.8197 81.4004 49.0918C80.4078 47.553 79.8781 46.8428 79.2284 46.1845C76.8932 43.5761 73.7112 42.2328 68.6225 42.3356L65.9718 42.6784C63.4317 43.3203 61.0109 44.6535 59.5914 46.4411C55.3321 51.2739 56.5468 59.7322 61.7297 63.2131C66.8357 67.0455 74.3366 67.9173 75.2947 71.501C76.2269 75.8882 72.0703 77.3085 67.939 76.8039C64.8943 76.1707 63.201 74.6232 61.3703 71.8093C58.0008 73.7593 58.0008 73.7593 54.5364 75.7517C55.358 77.5478 56.2212 78.3607 57.5983 79.9168C64.1159 86.5279 80.4258 86.203 83.3511 76.1966C83.4697 75.853 84.2575 73.5617 83.6243 70.029ZM49.9257 42.8653H41.5098L41.4753 64.6233C41.4753 69.2506 41.7147 73.4927 40.9621 74.7929C39.7309 77.3502 36.5404 77.0332 35.0863 76.5373C33.6064 75.8099 32.8539 74.7756 31.9821 73.3137C31.7427 72.8939 31.563 72.5691 31.5027 72.5439L24.6602 76.7342C25.7979 79.0694 27.4741 81.0963 29.621 82.4131C32.828 84.3379 37.1384 84.928 41.6464 83.893C44.5803 83.0384 47.1117 81.2681 48.4371 78.5735C50.3533 75.0408 49.9422 70.765 49.9249 66.0356C49.9681 58.3198 49.9257 50.6055 49.9257 42.8653Z" fill="#323330"/>
</g>
</svg>
