<svg width="92" height="93" viewBox="0 0 92 93" fill="none" xmlns="http://www.w3.org/2000/svg">
<g id="nextjs-line 1" clip-path="url(#clip0_28_129)">
<path id="Vector" d="M46 0.5C20.6281 0.5 0 21.1281 0 46.5C0 71.8719 20.6281 92.5 46 92.5C71.3719 92.5 92 71.8719 92 46.5C92 21.1281 71.3719 0.5 46 0.5ZM69.5031 82.725L34.7875 30.5437H29.9V66.5531H34.7875V40.2469L66.5563 84.45C60.4469 87.7562 53.475 89.625 46 89.625C22.1375 89.6969 2.80313 70.3625 2.80313 46.5C2.80313 22.6375 22.1375 3.30313 46 3.30313C69.8625 3.30313 89.1969 22.6375 89.1969 46.5C89.1969 61.6656 81.3625 75.0344 69.5031 82.725Z" fill="black"/>
<path id="Vector_2" d="M56.4937 53.1844L61.8843 61.3063V30.5438H56.4937V53.1844Z" fill="black"/>
</g>
<defs>
<clipPath id="clip0_28_129">
<rect width="92" height="92" fill="white" transform="translate(0 0.5)"/>
</clipPath>
</defs>
</svg>
