<svg width="92" height="93" viewBox="0 0 92 93" fill="none" xmlns="http://www.w3.org/2000/svg">
<g id="react-original 1">
<g id="Group">
<path id="Vector" d="M46.0001 54.6937C50.5254 54.6937 54.1939 51.0253 54.1939 46.5C54.1939 41.9747 50.5254 38.3062 46.0001 38.3062C41.4749 38.3062 37.8064 41.9747 37.8064 46.5C37.8064 51.0253 41.4749 54.6937 46.0001 54.6937Z" fill="#61DAFB"/>
<path id="Vector_2" d="M77.122 32.9875C75.5407 32.4125 73.8876 31.8375 72.1626 31.3344C72.5938 29.6094 72.9532 27.8844 73.2407 26.2312C74.7501 16.7437 73.097 10.0594 68.497 7.47187C67.1313 6.68124 65.622 6.32187 63.897 6.32187C58.8657 6.32187 52.4688 10.0594 46.0001 16.3125C39.5313 10.0594 33.1345 6.32187 28.1032 6.32187C26.3782 6.32187 24.8688 6.68124 23.5032 7.47187C18.9032 10.1312 17.2501 16.8156 18.7595 26.2312C19.047 27.8844 19.4063 29.6094 19.8376 31.3344C18.1126 31.8375 16.4595 32.3406 14.8782 32.9875C5.89385 36.4375 1.00635 41.1812 1.00635 46.5C1.00635 51.8187 5.96572 56.5625 14.8782 60.0125C16.4595 60.5875 18.1126 61.1625 19.8376 61.6656C19.4063 63.3906 19.047 65.1156 18.7595 66.7687C17.2501 76.2562 18.9032 82.9406 23.5032 85.5281C24.8688 86.3187 26.3782 86.6781 28.1032 86.6781C33.2063 86.6781 39.6032 82.9406 46.0001 76.6875C52.4688 82.9406 58.8657 86.6781 63.897 86.6781C65.622 86.6781 67.1313 86.3187 68.497 85.5281C73.097 82.8687 74.7501 76.1844 73.2407 66.7687C72.9532 65.1156 72.5938 63.3906 72.1626 61.6656C73.8876 61.1625 75.5407 60.6594 77.122 60.0125C86.1063 56.5625 90.9938 51.8187 90.9938 46.5C90.9938 41.1812 86.1063 36.4375 77.122 32.9875ZM66.4845 11.0656C69.4313 12.7906 70.4376 18.1094 69.2157 25.6562C69.0001 27.1656 68.6407 28.7469 68.2095 30.4C64.472 29.5375 60.5188 28.9625 56.3501 28.6031C53.9063 25.1531 51.3907 22.0625 48.8751 19.2594C54.1938 14.0125 59.5845 10.4187 63.9688 10.4187C64.9032 10.4187 65.7657 10.6344 66.4845 11.0656ZM58.4345 53.6875C57.1407 55.9875 55.6313 58.2875 54.0501 60.5875C51.3907 60.8031 48.7313 60.875 46.0001 60.875C43.197 60.875 40.5376 60.8031 37.9501 60.5875C36.3688 58.2875 34.9313 55.9875 33.6376 53.6875C32.272 51.3156 30.9782 48.8719 29.8282 46.5C30.9782 44.1281 32.272 41.6844 33.6376 39.3125C34.9313 37.0125 36.4407 34.7125 38.022 32.4125C40.6813 32.1969 43.3407 32.125 46.072 32.125C48.8751 32.125 51.5345 32.1969 54.122 32.4125C55.7032 34.7125 57.1407 37.0125 58.4345 39.3125C59.8001 41.6844 61.0938 44.1281 62.2438 46.5C61.022 48.8719 59.8001 51.2437 58.4345 53.6875ZM64.4001 51.3156C65.4782 53.8312 66.3407 56.275 67.1313 58.7187C64.6876 59.2937 62.1001 59.725 59.3688 60.0844C60.2313 58.7187 61.1657 57.2812 61.9563 55.7719C62.8188 54.2625 63.6095 52.7531 64.4001 51.3156ZM46.0001 70.7937C44.2751 68.925 42.622 66.9125 41.0407 64.8281C42.6938 64.9 44.347 64.9719 46.0001 64.9719C47.6532 64.9719 49.3063 64.9 50.9595 64.8281C49.3782 66.9125 47.7251 68.925 46.0001 70.7937ZM32.6313 60.0125C29.9001 59.6531 27.3126 59.2219 24.8688 58.6469C25.6595 56.275 26.522 53.7594 27.6001 51.2437C28.3907 52.6812 29.1813 54.1906 30.0438 55.6281C30.9063 57.2094 31.7688 58.575 32.6313 60.0125ZM27.6001 41.6844C26.522 39.1687 25.6595 36.725 24.8688 34.2812C27.3126 33.7062 29.9001 33.275 32.6313 32.9156C31.7688 34.2812 30.8345 35.7187 30.0438 37.2281C29.1813 38.7375 28.3907 40.2469 27.6001 41.6844ZM46.0001 22.2062C47.7251 24.075 49.3782 26.0875 50.9595 28.1719C49.3063 28.1 47.6532 28.0281 46.0001 28.0281C44.347 28.0281 42.6938 28.1 41.0407 28.1719C42.622 26.0875 44.2751 24.075 46.0001 22.2062ZM61.9563 37.3L59.3688 32.9875C62.1001 33.3469 64.6876 33.7781 67.1313 34.3531C66.3407 36.725 65.4782 39.2406 64.4001 41.7562C63.6095 40.2469 62.8188 38.7375 61.9563 37.3ZM22.7845 25.6562C21.5626 18.1094 22.5688 12.7906 25.5157 11.0656C26.2345 10.6344 27.097 10.4187 28.0313 10.4187C32.3438 10.4187 37.7345 13.9406 43.1251 19.2594C40.6095 21.9906 38.0938 25.1531 35.6501 28.6031C31.4813 28.9625 27.5282 29.6094 23.7907 30.4C23.3595 28.7469 23.072 27.1656 22.7845 25.6562ZM5.03135 46.5C5.03135 43.1219 9.12822 39.5281 16.3157 36.8687C17.7532 36.2937 19.3345 35.7906 20.9157 35.3594C22.0657 38.9531 23.5032 42.7625 25.2282 46.5719C23.5032 50.3812 21.9938 54.1187 20.9157 57.7125C10.997 54.8375 5.03135 50.525 5.03135 46.5ZM25.5157 81.9344C22.5688 80.2094 21.5626 74.8906 22.7845 67.3437C23.0001 65.8344 23.3595 64.2531 23.7907 62.6C27.5282 63.4625 31.4813 64.0375 35.6501 64.3969C38.0938 67.8469 40.6095 70.9375 43.1251 73.7406C37.8063 78.9875 32.4157 82.5812 28.0313 82.5812C27.097 82.5812 26.2345 82.3656 25.5157 81.9344ZM69.2157 67.3437C70.4376 74.8906 69.4313 80.2094 66.4845 81.9344C65.7657 82.3656 64.9032 82.5812 63.9688 82.5812C59.6563 82.5812 54.2657 79.0594 48.8751 73.7406C51.3907 71.0094 53.9063 67.8469 56.3501 64.3969C60.5188 64.0375 64.472 63.3906 68.2095 62.6C68.6407 64.2531 68.9282 65.8344 69.2157 67.3437ZM75.6845 56.1312C74.247 56.7062 72.6657 57.2094 71.0845 57.6406C69.9345 54.0469 68.497 50.2375 66.772 46.4281C68.497 42.6187 70.0063 38.8812 71.0845 35.2875C81.0032 38.1625 86.9688 42.475 86.9688 46.5C86.9688 49.8781 82.8001 53.4719 75.6845 56.1312Z" fill="#61DAFB"/>
</g>
</g>
</svg>
