<svg width="92" height="93" viewBox="0 0 92 93" fill="none" xmlns="http://www.w3.org/2000/svg">
<g id="sass-original 1">
<path id="Vector" fill-rule="evenodd" clip-rule="evenodd" d="M0.876221 40.8621C0.876221 41.3674 1.025 41.7009 1.10838 42.0251C1.65175 44.1332 2.81972 45.9422 4.20547 47.5925C6.17916 49.9442 8.59631 51.8374 11.0724 53.6178C13.22 55.1617 15.4115 56.671 17.5678 58.2034C17.9379 58.4665 18.2879 58.7691 18.6897 59.0918C18.344 59.2787 18.0565 59.4433 17.7575 59.5949C14.912 61.0382 12.1743 62.6561 9.65072 64.6161C8.12985 65.7977 6.65928 67.0534 5.62069 68.6943C3.9496 71.3335 3.35806 74.1453 4.60366 77.1475C4.96735 78.0244 5.52222 78.7819 6.30494 79.3418C6.55866 79.523 6.84328 79.7027 7.14013 79.7731C7.90056 79.9521 8.67538 80.0692 9.44516 80.2108L11.6251 80.2094C14.0358 79.9945 16.2302 79.1686 18.2132 77.8001C21.3124 75.6611 23.4004 72.7933 24.2981 69.1126C24.9508 66.4374 24.9773 63.7593 24.2083 61.0964C24.1347 60.8497 24.0498 60.6065 23.9538 60.3676C23.8604 60.1282 23.7504 59.8953 23.6211 59.5971L28.5632 56.7551L28.6372 56.8184C28.5474 57.1123 28.4518 57.4056 28.3706 57.7024C27.7833 59.8472 27.3931 62.0293 27.5332 64.2553C27.6827 66.6272 28.3447 68.8474 29.7333 70.829C30.856 72.4318 33.5312 72.4914 34.7243 70.8829C35.1477 70.3115 35.5581 69.7142 35.8664 69.0767C36.6721 67.4128 37.4182 65.7194 38.188 64.0375L38.3224 63.7299C38.267 64.5262 38.2023 65.2256 38.1729 65.9257C38.1269 67.0189 38.1908 68.1056 38.5646 69.1457C38.8844 70.0355 39.4285 70.7003 40.4477 70.8175C41.1449 70.8973 41.7005 70.5781 42.213 70.1735C43.0069 69.5461 43.6649 68.7638 44.1471 67.8742C45.5135 65.365 46.9165 62.871 48.1549 60.2986C49.4946 57.5163 50.6662 54.6528 51.9103 51.8231L52.1159 51.3214C52.4099 52.4764 52.6147 53.6077 52.9921 54.6787C53.4305 55.9214 53.9732 57.1346 54.564 58.3141C54.8436 58.8711 54.8112 59.2327 54.4238 59.6998C52.8023 61.6548 51.2088 63.6336 49.6139 65.6101C49.261 66.0464 48.9096 66.4906 48.6156 66.9671C48.4373 67.2681 48.32 67.6012 48.2706 67.9475C48.2211 68.2663 48.297 68.5919 48.4823 68.856C48.6676 69.1201 48.948 69.3022 49.2646 69.3642C49.9037 69.5018 50.5589 69.5485 51.211 69.5029C53.437 69.339 55.4581 68.5577 57.2449 67.2338C59.56 65.5188 60.3032 63.1786 59.7426 60.4049C59.5909 59.6524 59.3228 58.9207 59.0619 58.1955C58.9447 57.8685 58.9368 57.6392 59.1503 57.3344C61.0011 54.6916 62.5823 51.8877 64.0529 49.0192C64.1111 48.9064 64.1708 48.7935 64.2728 48.6728C64.7494 51.1525 65.4667 53.5423 66.7518 55.7108C66.0963 56.3426 65.4473 56.9154 64.8601 57.5465C63.567 58.9365 62.4458 60.4459 61.8607 62.2866C61.6092 63.0801 61.4158 63.8866 61.5279 64.734C61.7019 66.05 62.78 66.9053 64.0745 66.6056C66.8445 65.9645 69.2358 64.6592 70.9831 62.347C72.159 60.7902 72.2661 59.0537 71.7737 57.2345C71.6386 56.74 71.4783 56.2534 71.3058 55.6863C71.9893 55.4743 72.6556 55.2199 73.3449 55.0625C76.9236 54.246 80.4634 54.3883 83.912 55.6806C85.9252 56.4353 87.5517 57.6981 88.5163 59.6847C89.6943 62.1134 89.0431 64.4177 86.7539 65.953C86.5404 66.096 86.2961 66.2088 86.1192 66.3878C86.0626 66.4535 86.0203 66.5302 85.9949 66.6131C85.9695 66.696 85.9617 66.7833 85.9719 66.8694C85.987 66.9578 86.2206 67.0685 86.355 67.067C87.1075 67.0613 87.7178 66.6667 88.3035 66.2613C89.7712 65.2457 90.8422 63.8794 91.0729 62.0803L91.1182 61.9452L91.0628 60.7737C91.0405 60.7061 91.0793 60.6392 91.0743 60.5882C90.7624 57.9684 89.363 55.9365 87.3275 54.3437C84.97 52.5001 82.1862 51.7411 79.2422 51.6211C76.8546 51.5183 74.4699 51.8854 72.2237 52.7014C71.5789 52.935 70.94 53.2117 70.2917 53.4726C70.2047 53.3152 70.1113 53.1642 70.0343 53.0083C69.3688 51.6455 68.5623 50.3432 68.3841 48.7806C68.2576 47.6708 68.1023 46.5625 68.3661 45.465C68.6198 44.4092 68.9505 43.3713 69.2617 42.3298C69.422 41.7936 69.3091 41.4932 68.7974 41.2517C68.6191 41.1628 68.4288 41.1003 68.2324 41.0662C66.9746 40.8837 65.7341 40.9879 64.5158 41.3423C64.0845 41.468 63.7712 41.7095 63.6756 42.1868C63.6209 42.4606 63.5095 42.723 63.4319 42.9932C63.1135 44.1166 62.8878 45.2616 62.3732 46.3318C61.0838 49.0163 59.6118 51.5995 58.1053 54.164C57.9421 54.4408 57.7703 54.7124 57.5647 55.0481C57.0357 53.9412 56.4715 52.9479 56.3005 51.7835C56.1071 50.4668 55.9548 49.1522 56.2825 47.8455C56.5262 46.8709 56.8446 45.9142 57.1378 44.9525C57.2765 44.4954 57.2126 44.2553 56.7986 44.0146C56.5894 43.8931 56.3529 43.7853 56.1172 43.7501C54.8275 43.5536 53.5097 43.6614 52.269 44.0649C51.8787 44.1914 51.6739 44.4437 51.5546 44.8462C51.2038 46.0335 50.9048 47.2497 50.4125 48.3788C48.4187 52.9501 46.3673 57.4976 44.3182 62.0444C43.8905 62.9939 43.3896 63.9103 42.9073 64.8346C42.7851 65.0689 42.6068 65.2752 42.4545 65.4951C42.3323 65.3507 42.2848 65.2515 42.2856 65.1523C42.2892 64.5679 42.2194 63.9663 42.3308 63.4014C42.6729 61.6928 43.0511 59.9916 43.465 58.299C43.8028 56.9003 44.196 55.5146 44.5705 54.1252C44.6963 53.6602 44.6984 53.2253 44.3642 52.8343C43.8028 52.1796 42.6298 52.0358 41.9341 52.5404L41.6265 52.7143L41.6861 52.2184C41.8328 51.1553 41.8622 50.0959 41.5704 49.0487C41.2067 47.7434 40.2752 46.9923 38.9211 47.034C38.29 47.0534 37.6273 47.1612 37.043 47.3912C34.5856 48.3544 32.696 50.06 31.0874 52.112C30.9383 52.3025 30.7535 52.4622 30.5433 52.5821C28.464 53.7349 26.3782 54.8734 24.2931 56.0162L21.9723 57.2877C21.3498 56.694 20.7842 56.0781 20.1423 55.5555C18.1823 53.957 16.1906 52.3981 14.2169 50.8175C12.4675 49.4167 10.7727 47.9576 9.47606 46.1025C8.5115 44.7225 7.88978 43.2124 7.83013 41.5061C7.75466 39.3319 8.37135 37.3453 9.47822 35.4959C10.8942 33.1298 12.8254 31.2309 14.9486 29.5109C17.1947 27.6925 19.6241 26.1486 22.1419 24.7391C25.6645 22.7676 29.2877 21.0225 33.1725 19.8703C37.1558 18.6887 41.1974 18.0123 45.3661 18.4838C47.0049 18.6693 48.5962 19.0445 50.0574 19.8459C51.1765 20.459 52.0943 21.2618 52.5213 22.5168C52.9425 23.7516 52.9295 25.0029 52.6377 26.2571C52.0448 28.7972 50.654 30.8909 48.9038 32.7618C46.0331 35.8287 42.5314 37.9167 38.589 39.296C36.3223 40.0901 33.9639 40.5931 31.5704 40.7931C29.609 40.9577 27.6885 40.7838 25.8312 40.1017C24.6014 39.6496 23.5305 38.9582 22.6694 37.9548C22.5156 37.7751 22.3187 37.5803 22.0319 37.7485C21.7509 37.9138 21.7013 38.1812 21.7954 38.4522C21.9528 38.9021 22.098 39.3707 22.3431 39.7732C22.9591 40.7831 23.8575 41.5155 24.8465 42.1437C26.7462 43.3519 28.8694 43.758 31.0709 43.8521C34.4117 43.9966 37.6712 43.4978 40.8847 42.6015C45.4725 41.3221 49.4616 39.0624 52.6607 35.4974C55.3244 32.5289 57.2269 29.1788 57.6345 25.1337C57.8336 23.1593 57.6215 21.2252 56.6972 19.424C55.6946 17.4726 54.1004 16.0214 52.1942 15.0216C49.4184 13.5662 46.4227 12.7188 43.3306 12.7188H40.2328C36.4881 12.7188 32.8678 13.7918 29.3488 15.0719C26.6851 16.0415 24.0732 17.1858 21.5374 18.4522C16.0153 21.2115 10.8726 24.5386 6.6485 29.1134C4.544 31.3926 2.76222 33.9075 1.73728 36.8687C1.42794 37.7529 1.16145 38.6514 0.938752 39.5612M20.948 65.4455C20.7087 68.6504 19.2561 71.2487 16.8821 73.3532C15.5466 74.5363 14.015 75.3787 12.231 75.6748C11.5842 75.7819 10.9222 75.8078 10.2947 75.5397C9.39988 75.1573 9.19935 74.3631 9.1821 73.5171C9.1555 72.1687 9.62772 70.9497 10.2753 69.7897C11.1206 68.2774 12.3597 67.1245 13.6829 66.0478C15.7673 64.3509 18.0285 62.9148 20.3443 61.5593L20.5189 61.4874C20.8769 62.8099 21.0472 64.1158 20.948 65.4455ZM39.0303 51.5169C38.8614 52.5404 38.6501 53.5646 38.3511 54.5565C37.3176 57.9899 35.99 61.317 34.5547 64.5996C34.2895 65.2069 33.9035 65.7611 33.5678 66.3368C33.5107 66.4253 33.4424 66.506 33.3644 66.5768C32.949 66.9872 32.5551 66.9657 32.3452 66.4288C32.1009 65.8049 31.9507 65.1372 31.8213 64.4767C31.7343 64.0332 31.7552 63.5674 31.7278 63.1132C31.7559 59.8831 32.7413 56.9478 34.4131 54.2151C35.1024 53.0881 35.8528 52.0143 36.9992 51.3013C37.3558 51.0795 37.7416 50.9087 38.1456 50.7938C38.7565 50.622 39.1317 50.9045 39.0303 51.5169ZM51.367 67.2345L55.8009 62.0573C55.9857 63.98 52.7175 67.8181 51.367 67.2345ZM65.5285 63.7507C65.2151 63.9304 64.8737 64.0598 64.5524 64.2258C64.2585 64.3782 64.1614 64.2244 64.1528 63.9714C64.1485 63.7962 64.171 63.6215 64.2197 63.4532C64.8184 61.3415 65.9202 59.5388 67.5597 58.0726L67.6747 58.0137C68.4545 60.1951 67.5532 62.5907 65.5285 63.7507Z" fill="#CB6699"/>
</g>
</svg>
