<svg width="92" height="93" viewBox="0 0 92 93" fill="none" xmlns="http://www.w3.org/2000/svg">
<g id="tailwindcss-plain 1" clip-path="url(#clip0_28_110)">
<path id="Vector" d="M46.0029 18.9014C33.736 18.9014 26.072 25.0324 23.0029 37.2993C27.6015 31.1676 32.9698 28.8683 39.1015 30.4014C42.6025 31.274 45.1045 33.8126 47.8753 36.6258C52.3847 41.2021 57.6043 46.5 69.0029 46.5C81.2691 46.5 88.9339 40.3683 92.0029 28.0986C87.4036 34.2338 82.036 36.5331 75.9037 35C72.4033 34.1267 69.9042 31.5888 67.1299 28.7756C62.6233 24.1993 57.4052 18.9014 46.0029 18.9014ZM23.0029 46.5C10.7367 46.5 3.07199 52.6316 0.00292969 64.9014C4.60149 58.7662 9.96912 56.4669 16.1015 58C19.6025 58.8733 22.1045 61.4112 24.8753 64.2244C29.3847 68.8007 34.6043 74.0986 46.0029 74.0986C58.2691 74.0986 65.9339 67.9676 69.0029 55.7007C64.4036 61.8324 59.036 64.1316 52.9037 62.5986C49.4033 61.726 46.9042 59.1874 44.1299 56.3742C39.6233 51.7979 34.4052 46.5 23.0029 46.5Z" fill="#38B2AC"/>
</g>
<defs>
<clipPath id="clip0_28_110">
<rect width="92" height="92" fill="white" transform="translate(0 0.5)"/>
</clipPath>
</defs>
</svg>
