<svg width="92" height="93" viewBox="0 0 92 93" fill="none" xmlns="http://www.w3.org/2000/svg">
<g id="ubuntu-plain 1">
<path id="Vector" d="M45.9999 2.83307C21.8823 2.83307 2.33228 22.3831 2.33228 46.5C2.33228 70.6155 21.8823 90.1669 45.9999 90.1669C70.1169 90.1669 89.6676 70.6155 89.6676 46.5C89.6676 22.3831 70.1176 2.83307 45.9999 2.83307ZM55.7972 17.8708C56.1799 17.2079 56.6893 16.6268 57.2965 16.1609C57.9037 15.6949 58.5968 15.353 59.3361 15.1549C60.0754 14.9567 60.8464 14.9061 61.6053 15.006C62.3642 15.1058 63.0959 15.3541 63.7588 15.7368C64.4217 16.1194 65.0027 16.6289 65.4687 17.2361C65.9347 17.8433 66.2765 18.5363 66.4747 19.2756C66.6728 20.0149 66.7234 20.786 66.6236 21.5449C66.5238 22.3037 66.2754 23.0355 65.8928 23.6984C65.5103 24.3614 65.0009 24.9426 64.3937 25.4087C63.7864 25.8747 63.0933 26.2166 62.3539 26.4146C61.6145 26.6127 60.8433 26.6631 60.0845 26.5629C59.3256 26.4627 58.5939 26.214 57.9312 25.8309C56.5929 25.058 55.6164 23.7853 55.2162 22.2926C54.8161 20.7999 55.0251 19.2094 55.7972 17.8708ZM45.9999 21.1734C48.3445 21.1734 50.6121 21.499 52.7662 22.0941C52.9589 23.2936 53.4169 24.435 54.1067 25.4349C54.7966 26.4349 55.701 27.2683 56.7539 27.8743C57.804 28.4813 58.976 28.847 60.1849 28.9451C61.3939 29.0432 62.6095 28.8712 63.7437 28.4414C68.0548 32.6806 70.8601 38.4457 71.269 44.8677L62.9617 44.9899C62.1948 36.2909 54.8959 29.4699 45.9999 29.4699C43.5219 29.4675 41.0735 30.0079 38.8268 31.0533L34.7752 23.7947C38.2645 22.0668 42.1063 21.1697 45.9999 21.1734ZM16.3077 52.3305C15.5419 52.3306 14.7837 52.1799 14.0762 51.8869C13.3687 51.5939 12.7259 51.1645 12.1844 50.623C11.6429 50.0816 11.2134 49.4388 10.9203 48.7314C10.6273 48.024 10.4764 47.2657 10.4764 46.5C10.4762 45.7342 10.6269 44.9758 10.9199 44.2683C11.2129 43.5607 11.6424 42.9178 12.1839 42.3763C12.7255 41.8348 13.3684 41.4053 14.0759 41.1123C14.7835 40.8193 15.5418 40.6686 16.3077 40.6688C17.8429 40.6858 19.3094 41.3077 20.389 42.3993C21.4686 43.491 22.0741 44.9643 22.0741 46.4996C22.0741 48.035 21.4686 49.5083 20.389 50.6C19.3094 51.6916 17.8429 52.3135 16.3077 52.3305ZM21.4762 52.8494C22.4199 52.0822 23.1805 51.1141 23.7028 50.0157C24.225 48.9173 24.4956 47.7162 24.4949 46.5C24.4949 43.9377 23.3169 41.6506 21.4762 40.1491C23.0531 34.0477 26.8488 28.8374 31.9491 25.427L36.212 32.567C31.8334 35.6483 28.9713 40.7385 28.9713 46.5C28.9713 52.2615 31.8327 57.3517 36.212 60.4315L31.9491 67.5738C26.8467 64.164 23.051 58.9523 21.4762 52.8494ZM63.761 77.2611C63.0982 77.6441 62.3664 77.8927 61.6075 77.9928C60.8485 78.0928 60.0773 78.0423 59.3379 77.8442C58.5985 77.646 57.9054 77.304 57.2982 76.8378C56.6911 76.3716 56.1817 75.7903 55.7994 75.1271C54.1887 72.3405 55.1446 68.7769 57.9333 67.1662C60.7199 65.5569 64.2856 66.5136 65.8949 69.3002C66.2778 69.963 66.5262 70.6947 66.6262 71.4535C66.7261 72.2124 66.6756 72.9835 66.4774 73.7228C66.2792 74.4621 65.9373 75.1551 65.4712 75.7622C65.0051 76.3693 64.424 76.8786 63.761 77.2611ZM63.7437 64.5586C62.6097 64.1277 61.394 63.9549 60.1849 64.0529C58.9757 64.1509 57.8037 64.5171 56.7539 65.125C55.7012 65.7312 54.797 66.5646 54.1073 67.5646C53.4176 68.5645 52.9597 69.7058 52.767 70.9052C50.5633 71.5169 48.2869 71.8274 45.9999 71.828C42.1063 71.8317 38.2647 70.934 34.7759 69.2053L38.8268 61.9459C41.0734 62.9916 43.5219 63.5323 45.9999 63.5301C54.8966 63.5301 62.1948 56.7106 62.9596 48.0108L71.269 48.1323C70.8601 54.5543 68.0548 60.3194 63.7437 64.5586Z" fill="#DD4814"/>
</g>
</svg>
