<svg width="92" height="93" viewBox="0 0 92 93" fill="none" xmlns="http://www.w3.org/2000/svg">
<g id="vscode-original 1">
<path id="Vector" d="M2.62787 32.8746C2.62787 32.8746 0.452211 31.2999 3.06631 29.1997L9.15268 23.7415C9.15268 23.7415 10.8964 21.9022 12.7385 23.5057L68.9268 66.1477V86.5962C68.9268 86.5962 68.8988 89.8075 64.789 89.4539L2.62787 32.8746Z" fill="#2489CA"/>
<path id="Vector_2" d="M17.1128 46.0536L2.6278 59.2521C2.6278 59.2521 1.13999 60.3611 2.6278 62.3463L9.35243 68.4751C9.35243 68.4751 10.9495 70.1965 13.3113 68.2393L28.6631 56.5682L17.1128 46.0536Z" fill="#1070B3"/>
<path id="Vector_3" d="M42.5386 46.1629L69.0985 25.833L68.9267 5.49458C68.9267 5.49458 67.7926 1.05558 64.0083 3.3678L28.6631 35.6116L42.5386 46.1629Z" fill="#0877B9"/>
<path id="Vector_4" d="M64.7881 89.4791C66.3299 91.0625 68.2001 90.5429 68.2001 90.5429L88.8979 80.3208C91.5479 78.5095 91.1771 76.2635 91.1771 76.2635V15.2092C91.1771 12.5247 88.4372 11.5982 88.4372 11.5982L70.4965 2.92939C66.5771 0.500734 64.0083 3.36783 64.0083 3.36783C64.0083 3.36783 67.3095 0.983734 68.9267 5.49533V86.2232C68.9267 86.7788 68.8088 87.3229 68.5731 87.8145C68.1016 88.7719 67.0738 89.6617 64.6171 89.2886L64.7881 89.4791Z" fill="#3C99D4"/>
</g>
</svg>
